<?xml version="1.0" encoding="UTF-8" standalone="no"?>
<svg
   xmlns:osb="http://www.openswatchbook.org/uri/2009/osb"
   xmlns:dc="http://purl.org/dc/elements/1.1/"
   xmlns:cc="http://creativecommons.org/ns#"
   xmlns:rdf="http://www.w3.org/1999/02/22-rdf-syntax-ns#"
   xmlns:svg="http://www.w3.org/2000/svg"
   xmlns="http://www.w3.org/2000/svg"
   xmlns:xlink="http://www.w3.org/1999/xlink"
   width="38.839195mm"
   height="29.973843mm"
   viewBox="0 0 38.839192 29.973842"
   version="1.1"
   id="svg8">
  <defs
     id="defs2">
    <linearGradient
       id="linearGradient965">
      <stop
         id="stop963"
         offset="0"
         style="stop-color:#000000;stop-opacity:1;" />
    </linearGradient>
    <linearGradient
       id="linearGradient2867">
      <stop
         id="stop2863"
         offset="0"
         style="stop-color:#fffcf5;stop-opacity:1;" />
      <stop
         id="stop2865"
         offset="1"
         style="stop-color:#fffcf5;stop-opacity:0;" />
    </linearGradient>
    <linearGradient
       osb:paint="gradient"
       id="linearGradient2845">
      <stop
         id="stop2841"
         offset="0"
         style="stop-color:#000000;stop-opacity:0.05439331" />
      <stop
         id="stop2843"
         offset="1"
         style="stop-color:#090600;stop-opacity:0.68619245" />
    </linearGradient>
    <linearGradient
       gradientUnits="userSpaceOnUse"
       y2="143.54166"
       x2="202.06606"
       y1="143.54166"
       x1="33.791069"
       id="linearGradient2869"
       xlink:href="#linearGradient2867" />
  </defs>
  <metadata
     id="metadata5">
    <rdf:RDF>
      <cc:Work
         rdf:about="">
        <dc:format>image/svg+xml</dc:format>
        <dc:type
           rdf:resource="http://purl.org/dc/dcmitype/StillImage" />
        <dc:title></dc:title>
      </cc:Work>
    </rdf:RDF>
  </metadata>
  <g
     transform="translate(-38.452843,-173.67052)"
     style="display:none"
     id="layer2">
    <image
       xlink:href="resources/photos/fox-climbing-down.jpg"
       y="24.479164"
       x="33.791069"
       id="image72"
       style="fill:url(#linearGradient2869);fill-opacity:1;image-rendering:optimizeSpeed"
       preserveAspectRatio="none"
       height="238.125"
       width="168.27499" />
  </g>
  <g
     transform="translate(-38.452843,-173.67052)"
     style="display:inline"
     id="layer1">
    <path
       id="path945"
       d="m 49.662888,197.39478 c -0.0023,-0.0834 0.176436,-0.26445 0.356979,-0.39699 0.244147,-0.7736 0.182208,-1.56761 0.256883,-2.35248 -0.06744,-0.0447 -0.11522,-0.03 -0.22984,-0.21636 0.0029,-0.10568 -3.64e-4,-0.21724 -0.09911,-0.41594 0.535712,-0.42459 0.870476,-0.98311 1.140156,-1.58501 0.224995,2.51274 -0.730496,4.60055 -1.122166,6.25978 -0.205641,-0.0796 -0.334942,-0.13755 -0.302899,-1.29302 z"
       style="display:inline;fill:none;fill-opacity:1;stroke:#3363b8;stroke-width:0.405;stroke-linecap:butt;stroke-linejoin:round;stroke-miterlimit:4;stroke-dasharray:none;stroke-opacity:1;paint-order:markers fill stroke" />
    <path
       id="path81"
       d="m 49.947797,194.01303 c 0.663777,-0.53683 0.86441,-1.04819 1.140158,-1.58501 0,0 0.18928,1.47367 -0.324484,3.38001 -1.275778,5.04763 -1.162437,3.2489 -1.636767,4.23185 -0.01282,0.0268 -0.265194,0.59939 0.04471,1.04258 0.185082,0.26466 2.637762,0.93403 2.305893,-0.72198 -0.281738,-1.40588 1.495533,-6.02509 1.495533,-6.02509 0.615607,-2.35963 1.113605,-2.83323 1.05717,-3.88102 -0.108518,-2.01465 -0.0047,-2.65044 1.780661,-3.98036 0,0 0.191143,0.38408 0.454667,0.81756 0.263521,0.43353 0.599415,0.91647 0.888911,1.11415 1.410117,0.96291 -0.803112,3.93345 -1.050714,3.94913 -1.549593,0.0981 -1.566038,2.54268 0.170833,2.00051 1.733586,-0.54119 0.937009,-1.53565 2.417552,-2.92028 0.395118,-0.36949 0.818081,-1.84751 0.974311,-2.4475 0,0 -1.452008,-2.40307 0.497911,-4.63845 1.079961,-1.23807 0.712205,-2.98368 0.951309,-2.68548 l 3.396806,4.23645 c 4.175009,5.20703 5.951066,2.45825 3.678523,-2.77299 -1.060986,-2.44228 -2.147952,-3.10932 -5.011765,-5.44282 -3.097483,-2.52387 -6.003764,-1.68256 -6.003764,-1.68256 0,0 -11.185362,2.47131 -13.250351,14.47883"
       style="opacity:1;fill:none;fill-opacity:1;stroke:#3363b8;stroke-width:0.405;stroke-linecap:butt;stroke-linejoin:round;stroke-miterlimit:4;stroke-dasharray:none;stroke-opacity:1;paint-order:markers fill stroke" />
    <path
       id="path79"
       d="m 40.655346,189.49106 c 0,0 1.257066,2.68557 2.332673,3.79538 0,0 -0.57361,0.77437 0.03824,1.34799 0,0 0.994255,2.06499 1.529622,2.32312 l 0.114724,2.52386 c 0,0 0.133831,0.5832 0.994254,0.57363 0.583168,-0.0186 1.166336,-0.5545 1.166336,-0.5545 0.74569,-2.55255 0.810176,-2.69788 0.810176,-2.69788 1.45314,-0.76482 2.784435,-1.85275 2.306427,-2.78963 -1.238177,-1.79512 -0.171908,-1.85187 -0.167316,-5.06449 0.0014,-0.99628 -1.237856,0.1636 -2.834579,1.71843 0,0 -0.99371,0.48557 -3.138117,-0.20081 -0.602546,-0.19276 -0.05497,-0.31547 -3.152453,-0.97514 z"
       style="fill:none;fill-opacity:1;stroke:#3363b8;stroke-width:0.405;stroke-linecap:butt;stroke-linejoin:round;stroke-miterlimit:4;stroke-dasharray:none;stroke-opacity:1;paint-order:markers fill stroke" />
    <path
       id="path2837"
       d="m 65.486833,187.03349 c 0.467525,-1.26592 1.677906,-1.80741 3.407059,-1.91986 0.147214,0.74578 0.36611,1.51391 0.270404,2.19026 -0.108705,1.33842 -0.774206,1.51024 -1.635931,1.2709 -1.084504,-0.52611 -1.585149,-1.08499 -2.041532,-1.5413 z"
       style="fill:#3363b8;fill-opacity:1;stroke:#3363b8;stroke-width:0.405;stroke-linecap:butt;stroke-linejoin:round;stroke-miterlimit:4;stroke-dasharray:none;stroke-opacity:1;paint-order:markers fill stroke" />
    <path
       id="path3199"
       d="m 54.056593,189.79968 0.0012,-0.86996 0.44538,-0.30593 c 0.773587,-0.53138 1.130305,-0.93037 1.06486,-1.19114 -0.01303,-0.0521 -0.09448,-0.17124 -0.180946,-0.26506 -0.0865,-0.0939 -0.150439,-0.17745 -0.142105,-0.18551 0.05205,-0.0513 0.548901,-0.43749 0.554687,-0.43107 0.0039,0.004 0.11495,0.19709 0.246757,0.42847 0.289895,0.50881 0.630946,1.01395 0.831109,1.23099 l 0.147773,0.16027 -0.436631,0.39423 c -0.240145,0.21682 -0.594294,0.53647 -0.786993,0.71034 -0.192694,0.17372 -0.50079,0.42335 -0.684642,0.55447 -0.343154,0.24475 -0.980763,0.63995 -1.032504,0.63995 -0.01592,0 -0.02849,-0.3915 -0.02788,-0.86996 z"
       style="opacity:1;fill:none;fill-opacity:1;fill-rule:nonzero;stroke:#3363b8;stroke-width:0.405;stroke-linecap:butt;stroke-linejoin:round;stroke-miterlimit:4;stroke-dasharray:none;stroke-opacity:1;paint-order:markers fill stroke" />
    <g
       id="text83799"
       style="font-style:normal;font-weight:normal;font-size:10.58333302px;line-height:1.25;font-family:sans-serif;letter-spacing:0px;word-spacing:0px;fill:#000000;fill-opacity:1;stroke:none;stroke-width:0.26458332"
       aria-label="LF OS">
      <path
         id="path83811"
         style="font-style:italic;font-variant:normal;font-weight:bold;font-stretch:normal;font-size:7.76111126px;font-family:'TeX Gyre Schola';-inkscape-font-specification:'TeX Gyre Schola Bold Italic';fill:#3363b8;fill-opacity:1;stroke-width:0.26458332"
         d="m 57.296998,200.37032 0.527756,-1.97909 -0.403578,-0.0854 c 0.0908,1.4361 -1.381478,1.64536 -2.274006,1.64536 h -0.2794 c -0.310444,0 -0.411338,-0.0466 -0.411338,-0.20179 -0.0078,-0.0699 0.03104,-0.22508 0.108655,-0.49671 l 0.900289,-3.36833 c 0.1397,-0.52775 0.1397,-0.52775 0.20955,-0.58984 0.07761,-0.0776 0.263878,-0.10866 0.589844,-0.10866 h 0.1397 l 0.06209,-0.4191 h -2.964744 l -0.06209,0.4191 h 0.147461 c 0.504472,0 0.613128,0.0388 0.613128,0.20955 0,0.0699 -0.03105,0.21731 -0.100895,0.48895 l -0.90805,3.36833 c -0.1397,0.52775 -0.1397,0.52775 -0.201789,0.58984 -0.08537,0.0776 -0.147461,0.10866 -0.473427,0.10866 h -0.155223 l -0.05433,0.4191 z" />
      <path
         id="path83813"
         style="font-style:italic;font-variant:normal;font-weight:bold;font-stretch:normal;font-size:7.76111126px;font-family:'TeX Gyre Schola';-inkscape-font-specification:'TeX Gyre Schola Bold Italic';fill:#3363b8;fill-opacity:1;stroke-width:0.26458332"
         d="m 61.826665,196.65831 0.310444,-1.90148 h -4.757561 l -0.06209,0.4191 h 0.147461 c 0.504473,0 0.613128,0.0388 0.613128,0.20955 0,0.0699 -0.03104,0.21731 -0.100894,0.48895 l -0.993423,3.69429 c -0.08537,0.32597 -0.155222,0.37254 -0.636411,0.37254 h -0.108655 l -0.05433,0.4191 h 2.910417 l 0.06209,-0.4191 h -0.20955 c -0.504473,0 -0.613128,-0.0388 -0.613128,-0.20955 0,-0.0699 0.03104,-0.20955 0.108655,-0.48895 l 0.4191,-1.57551 h 0.248356 c 0.411339,0 0.651933,0.24836 0.651933,0.75283 0,0.1397 -0.0078,0.24835 -0.03881,0.47343 l 0.411339,0.0621 0.6985,-2.59997 -0.411339,-0.0543 c -0.263878,0.69074 -0.535517,0.94686 -1.210734,0.94686 h -0.240594 l 0.457905,-1.69968 c 0.07761,-0.30269 0.170745,-0.37254 0.48895,-0.37254 h 0.2794 c 0.923573,0 1.210734,0.35701 1.226256,1.48238 z" />
      <path
         id="path83815"
         style="font-style:italic;font-variant:normal;font-weight:bold;font-stretch:normal;font-size:7.76111126px;font-family:'TeX Gyre Schola';-inkscape-font-specification:'TeX Gyre Schola Bold Italic';fill:#3363b8;fill-opacity:1;stroke-width:0.26458332"
         d="m 69.836097,196.94767 c 0,-1.28835 -1.039989,-2.29729 -2.382661,-2.29729 -1.862667,0 -3.523545,1.56774 -3.523545,3.50026 0,1.41252 0.939095,2.33609 2.374901,2.33609 1.916994,0 3.531305,-1.61431 3.531305,-3.53906 z m -2.048933,1.90147 c -0.434622,0.82268 -0.923572,1.21849 -1.482372,1.21849 -0.605367,0 -0.985662,-0.4579 -0.985662,-1.19521 0,-0.72954 0.2794,-1.82386 0.659695,-2.59997 0.403578,-0.81492 0.869244,-1.20297 1.451328,-1.20297 0.613127,0 0.9779,0.48119 0.9779,1.26506 0,0.81491 -0.240595,1.78505 -0.620889,2.5146 z" />
      <path
         id="path83817"
         style="font-style:italic;font-variant:normal;font-weight:bold;font-stretch:normal;font-size:7.76111126px;font-family:'TeX Gyre Schola';-inkscape-font-specification:'TeX Gyre Schola Bold Italic';fill:#3363b8;fill-opacity:1;stroke-width:0.26458332"
         d="m 74.872937,198.63183 c 0,-1.05551 -0.613127,-1.38924 -2.041172,-1.86267 -0.729544,-0.24059 -0.869244,-0.48895 -0.869244,-0.86148 0,-0.50448 0.442383,-0.8382 1.109839,-0.8382 0.869244,0 1.435805,0.57432 1.474611,1.72296 l 0.403577,0.0699 0.341489,-2.04117 h -0.34925 l -0.411339,0.4191 c -0.473427,-0.41134 -0.939094,-0.58984 -1.552222,-0.58984 -1.179689,0 -2.064455,0.80715 -2.064455,1.87819 0,0.4191 0.147461,0.78387 0.434622,1.05551 0.240594,0.23283 0.473428,0.35701 1.125361,0.57432 1.04775,0.35701 1.32715,0.58208 1.32715,1.03223 0,0.51999 -0.48895,0.877 -1.218495,0.877 -1.008944,0 -1.660877,-0.67521 -1.668638,-1.59879 l 0.0078,-0.23283 -0.403578,-0.0621 -0.388056,2.1964 h 0.341489 l 0.450145,-0.50448 c 0.512233,0.44239 0.985661,0.62089 1.684161,0.62089 1.342672,0 2.266244,-0.76059 2.266244,-1.8549 z" />
    </g>
  </g>
</svg>
