<?xml version="1.0" encoding="UTF-8" standalone="no"?>
<svg
   xmlns:osb="http://www.openswatchbook.org/uri/2009/osb"
   xmlns:dc="http://purl.org/dc/elements/1.1/"
   xmlns:cc="http://creativecommons.org/ns#"
   xmlns:rdf="http://www.w3.org/1999/02/22-rdf-syntax-ns#"
   xmlns:svg="http://www.w3.org/2000/svg"
   xmlns="http://www.w3.org/2000/svg"
   xmlns:xlink="http://www.w3.org/1999/xlink"
   xmlns:sodipodi="http://sodipodi.sourceforge.net/DTD/sodipodi-0.dtd"
   xmlns:inkscape="http://www.inkscape.org/namespaces/inkscape"
   width="38.839195mm"
   height="29.973843mm"
   viewBox="0 0 38.839192 29.973842"
   version="1.1"
   id="svg8"
   sodipodi:docname="LF OS.svg"
   inkscape:version="1.0.1 (3bc2e813f5, 2020-09-07)">
  <sodipodi:namedview
     pagecolor="#ffffff"
     bordercolor="#666666"
     borderopacity="1"
     objecttolerance="10"
     gridtolerance="10"
     guidetolerance="10"
     inkscape:pageopacity="0"
     inkscape:pageshadow="2"
     inkscape:window-width="1916"
     inkscape:window-height="1041"
     id="namedview945"
     showgrid="false"
     inkscape:zoom="5.1431865"
     inkscape:cx="81.256673"
     inkscape:cy="53.802344"
     inkscape:window-x="1920"
     inkscape:window-y="18"
     inkscape:window-maximized="1"
     inkscape:current-layer="text83799" />
  <defs
     id="defs2">
    <linearGradient
       id="linearGradient965">
      <stop
         id="stop963"
         offset="0"
         style="stop-color:#000000;stop-opacity:1;" />
    </linearGradient>
    <linearGradient
       id="linearGradient2867">
      <stop
         id="stop2863"
         offset="0"
         style="stop-color:#fffcf5;stop-opacity:1;" />
      <stop
         id="stop2865"
         offset="1"
         style="stop-color:#fffcf5;stop-opacity:0;" />
    </linearGradient>
    <linearGradient
       osb:paint="gradient"
       id="linearGradient2845">
      <stop
         id="stop2841"
         offset="0"
         style="stop-color:#000000;stop-opacity:0.05439331" />
      <stop
         id="stop2843"
         offset="1"
         style="stop-color:#090600;stop-opacity:0.68619245" />
    </linearGradient>
    <linearGradient
       gradientUnits="userSpaceOnUse"
       y2="143.54166"
       x2="202.06606"
       y1="143.54166"
       x1="33.791069"
       id="linearGradient2869"
       xlink:href="#linearGradient2867" />
  </defs>
  <metadata
     id="metadata5">
    <rdf:RDF>
      <cc:Work
         rdf:about="">
        <dc:format>image/svg+xml</dc:format>
        <dc:type
           rdf:resource="http://purl.org/dc/dcmitype/StillImage" />
        <dc:title />
      </cc:Work>
    </rdf:RDF>
  </metadata>
  <g
     transform="translate(-38.452843,-173.67052)"
     style="display:none"
     id="layer2">
    <image
       xlink:href="resources/photos/fox-climbing-down.jpg"
       width="168.27499"
       height="238.125"
       preserveAspectRatio="none"
       style="fill:url(#linearGradient2869);fill-opacity:1;image-rendering:optimizeSpeed"
       id="image72"
       x="33.791069"
       y="24.479164" />
  </g>
  <g
     transform="translate(-38.452843,-173.67052)"
     style="display:inline"
     id="layer1">
    <path
       id="path945"
       d="m 49.662888,197.39478 c -0.0023,-0.0834 0.176436,-0.26445 0.356979,-0.39699 0.244147,-0.7736 0.182208,-1.56761 0.256883,-2.35248 -0.06744,-0.0447 -0.11522,-0.03 -0.22984,-0.21636 0.0029,-0.10568 -3.64e-4,-0.21724 -0.09911,-0.41594 0.535712,-0.42459 0.870476,-0.98311 1.140156,-1.58501 0.224995,2.51274 -0.730496,4.60055 -1.122166,6.25978 -0.205641,-0.0796 -0.334942,-0.13755 -0.302899,-1.29302 z"
       style="display:inline;fill:none;fill-opacity:1;stroke:#3363b8;stroke-width:0.405;stroke-linecap:butt;stroke-linejoin:round;stroke-miterlimit:4;stroke-dasharray:none;stroke-opacity:1;paint-order:markers fill stroke" />
    <path
       style="color:#000000;font-style:normal;font-variant:normal;font-weight:normal;font-stretch:normal;font-size:medium;line-height:normal;font-family:sans-serif;font-variant-ligatures:normal;font-variant-position:normal;font-variant-caps:normal;font-variant-numeric:normal;font-variant-alternates:normal;font-variant-east-asian:normal;font-feature-settings:normal;font-variation-settings:normal;text-indent:0;text-align:start;text-decoration:none;text-decoration-line:none;text-decoration-style:solid;text-decoration-color:#000000;letter-spacing:normal;word-spacing:normal;text-transform:none;writing-mode:lr-tb;direction:ltr;text-orientation:mixed;dominant-baseline:auto;baseline-shift:baseline;text-anchor:start;white-space:normal;shape-padding:0;shape-margin:0;inline-size:0;clip-rule:nonzero;display:inline;overflow:visible;visibility:visible;isolation:auto;mix-blend-mode:normal;color-interpolation:sRGB;color-interpolation-filters:linearRGB;solid-color:#000000;solid-opacity:1;vector-effect:none;fill:#3363b8;fill-opacity:1;fill-rule:nonzero;stroke:#ffffff;stroke-width:0.40499998;stroke-linecap:butt;stroke-linejoin:round;stroke-miterlimit:4;stroke-dasharray:none;stroke-dashoffset:0;stroke-opacity:1;paint-order:markers stroke fill;color-rendering:auto;image-rendering:auto;shape-rendering:auto;text-rendering:auto;enable-background:accumulate;stop-color:#000000;stop-opacity:1;opacity:1"
       d="M 55.804688 186.34766 C 55.804583 186.34765 55.746257 186.35542 55.746094 186.35547 C 55.745767 186.35556 55.715721 186.36584 55.708984 186.36914 C 55.695511 186.37574 55.690601 186.37964 55.685547 186.38281 C 55.675438 186.38915 55.668804 186.39429 55.660156 186.40039 C 55.64286 186.41259 55.620622 186.4286 55.595703 186.44727 C 55.545864 186.48459 55.482424 186.53432 55.416016 186.58594 C 55.349607 186.63755 55.28175 186.6901 55.226562 186.73438 C 55.171375 186.77865 55.140774 186.80117 55.103516 186.83789 C 55.101587 186.84088 55.0509 186.92344 55.050781 186.92383 C 55.05066 186.92423 55.041 186.9897 55.041016 186.99023 C 55.041031 186.99077 55.04463 187.01913 55.046875 187.0293 C 55.04912 187.03946 55.052375 187.048 55.054688 187.05469 C 55.063937 187.08145 55.071254 187.0919 55.078125 187.10352 C 55.091867 187.12674 55.103465 187.14555 55.119141 187.16602 C 55.150492 187.20695 55.191599 187.25401 55.238281 187.30469 C 55.27404 187.34349 55.311165 187.39056 55.337891 187.42969 C 55.364617 187.46882 55.37986 187.51747 55.371094 187.48242 C 55.376736 187.5049 55.358138 187.61325 55.199219 187.79102 C 55.0403 187.96878 54.767942 188.19651 54.388672 188.45703 L 53.943359 188.76367 A 0.20252025 0.20252025 0 0 0 53.855469 188.92969 L 53.853516 189.79883 C 53.853208 190.0399 53.856163 190.25883 53.861328 190.41992 C 53.863911 190.50047 53.867246 190.5673 53.871094 190.61719 C 53.873018 190.64213 53.875327 190.66127 53.878906 190.68359 C 53.880696 190.69476 53.881567 190.70657 53.888672 190.72852 C 53.890448 190.734 53.892973 190.73993 53.896484 190.74805 C 53.899996 190.75617 53.913817 190.77892 53.914062 190.7793 C 53.914308 190.77967 53.96069 190.82989 53.960938 190.83008 C 53.961061 190.83017 54.011595 190.85933 54.011719 190.85938 C 54.011843 190.85942 54.08386 190.87305 54.083984 190.87305 C 54.151664 190.87305 54.157541 190.85985 54.173828 190.85352 C 54.190115 190.84718 54.204102 190.84115 54.21875 190.83398 C 54.248046 190.81965 54.28014 190.80282 54.318359 190.78125 C 54.394799 190.7381 54.491683 190.67896 54.597656 190.61328 C 54.809604 190.48191 55.056475 190.3222 55.234375 190.19531 C 55.430076 190.05574 55.736732 189.806 55.9375 189.625 C 56.130229 189.4511 56.484441 189.13286 56.724609 188.91602 L 57.160156 188.52148 A 0.20252025 0.20252025 0 0 0 57.173828 188.23438 L 57.027344 188.07227 C 56.855622 187.88606 56.507271 187.37845 56.222656 186.87891 C 56.156638 186.76301 56.09575 186.65624 56.050781 186.57812 C 56.028297 186.53907 56.009527 186.50736 55.996094 186.48438 C 55.989377 186.47288 55.984886 186.4644 55.980469 186.45703 C 55.97826 186.45335 55.975011 186.45102 55.972656 186.44727 C 55.971479 186.44539 55.971068 186.44291 55.96875 186.43945 C 55.967591 186.43773 55.963004 186.43179 55.962891 186.43164 C 55.962806 186.43153 55.954467 186.42222 55.949219 186.41602 C 55.949196 186.41599 55.867225 186.35939 55.867188 186.35938 C 55.86715 186.35936 55.80474 186.34766 55.804688 186.34766 z M 55.738281 186.84766 C 55.777998 186.91687 55.820008 186.9904 55.871094 187.08008 C 56.166269 187.59816 56.499912 188.09978 56.728516 188.34766 L 56.738281 188.35742 L 56.453125 188.61523 C 56.213003 188.83203 55.858684 189.15038 55.666016 189.32422 C 55.481396 189.49066 55.172003 189.74256 55 189.86523 C 54.834746 189.9831 54.590347 190.14211 54.384766 190.26953 C 54.339329 190.29769 54.308072 190.31551 54.267578 190.33984 C 54.263593 190.19105 54.259497 190.01146 54.259766 189.80078 L 54.259766 189.03711 L 54.617188 188.79102 C 55.011504 188.52016 55.305478 188.28227 55.501953 188.0625 C 55.698429 187.84273 55.823474 187.6211 55.763672 187.38281 C 55.741876 187.29566 55.710748 187.25809 55.671875 187.20117 C 55.633002 187.14425 55.585864 187.08627 55.535156 187.03125 C 55.53023 187.0259 55.528192 187.02284 55.523438 187.01758 C 55.568299 186.98192 55.614063 186.94316 55.664062 186.9043 C 55.691621 186.88288 55.712399 186.86753 55.738281 186.84766 z "
       id="path997" />
    <path
       style="color:#000000;font-style:normal;font-variant:normal;font-weight:normal;font-stretch:normal;font-size:medium;line-height:normal;font-family:sans-serif;font-variant-ligatures:normal;font-variant-position:normal;font-variant-caps:normal;font-variant-numeric:normal;font-variant-alternates:normal;font-variant-east-asian:normal;font-feature-settings:normal;font-variation-settings:normal;text-indent:0;text-align:start;text-decoration:none;text-decoration-line:none;text-decoration-style:solid;text-decoration-color:#000000;letter-spacing:normal;word-spacing:normal;text-transform:none;writing-mode:lr-tb;direction:ltr;text-orientation:mixed;dominant-baseline:auto;baseline-shift:baseline;text-anchor:start;white-space:normal;shape-padding:0;shape-margin:0;inline-size:0;clip-rule:nonzero;display:inline;overflow:visible;visibility:visible;isolation:auto;mix-blend-mode:normal;color-interpolation:sRGB;color-interpolation-filters:linearRGB;solid-color:#000000;solid-opacity:1;vector-effect:none;fill:#3363b8;fill-opacity:1;fill-rule:nonzero;stroke:#ffffff;stroke-width:0.39999998;stroke-linecap:butt;stroke-linejoin:round;stroke-miterlimit:4;stroke-dasharray:none;stroke-dashoffset:0;stroke-opacity:1;paint-order:markers stroke fill;color-rendering:auto;image-rendering:auto;shape-rendering:auto;text-rendering:auto;enable-background:accumulate;stop-color:#000000;stop-opacity:1;opacity:1"
       d="M 59.027344 175.70117 C 57.88038 175.59371 57.133096 175.80491 57.126953 175.80664 C 57.114053 175.80951 45.808324 178.3289 43.724609 190.44531 L 44.125 190.51562 C 46.170074 178.62391 57.21875 176.19922 57.21875 176.19922 A 0.20252025 0.20252025 0 0 0 57.232422 176.19531 C 57.232422 176.19531 60.018468 175.37103 63.050781 177.8418 C 64.485089 179.0105 65.469401 179.75905 66.216797 180.50781 C 66.964193 181.25657 67.482752 182.00289 68.005859 183.20703 C 68.567572 184.50006 68.875971 185.63734 68.960938 186.51953 C 69.045904 187.40172 68.893044 188.01381 68.625 188.28516 C 68.490978 188.42083 68.332948 188.4893 68.111328 188.48828 C 67.889709 188.48726 67.604646 188.40615 67.265625 188.2207 C 66.587583 187.84982 65.703852 187.06294 64.669922 185.77344 L 61.273438 181.53711 C 61.247376 181.50461 61.222147 181.46378 61.136719 181.4375 C 61.094005 181.42436 61.031874 181.42372 60.982422 181.44531 C 60.93297 181.4669 60.901026 181.50099 60.882812 181.52734 C 60.809957 181.63275 60.82526 181.68182 60.816406 181.75977 C 60.7987 181.91567 60.78913 182.13683 60.753906 182.4043 C 60.683459 182.93922 60.513224 183.64187 60.011719 184.2168 C 58.996763 185.38034 58.857465 186.61099 58.982422 187.5332 C 59.098766 188.39186 59.41051 188.90426 59.457031 188.98438 C 59.37811 189.28476 59.243307 189.7664 59.078125 190.23047 C 58.906751 190.71193 58.678236 191.16975 58.552734 191.28711 C 57.781566 192.00832 57.586464 192.6618 57.390625 193.13477 C 57.194786 193.60773 57.039535 193.90466 56.214844 194.16211 C 55.821857 194.28478 55.572551 194.23119 55.414062 194.11914 C 55.255574 194.00709 55.16611 193.81556 55.158203 193.58789 C 55.142388 193.13256 55.448194 192.59899 56.117188 192.55664 C 56.228536 192.54959 56.25317 192.5109 56.294922 192.47852 C 56.336673 192.44614 56.378698 192.4082 56.423828 192.36133 C 56.514089 192.26758 56.618401 192.14136 56.732422 191.98828 C 56.960463 191.68212 57.222433 191.26993 57.433594 190.82227 C 57.644754 190.3746 57.807792 189.89253 57.822266 189.43359 C 57.83674 188.97466 57.680522 188.52026 57.267578 188.23828 C 57.044683 188.08608 56.69602 187.61085 56.4375 187.18555 C 56.178978 186.7603 55.992187 186.38281 55.992188 186.38281 A 0.20252025 0.20252025 0 0 0 55.689453 186.3125 C 54.785883 186.98557 54.279589 187.5034 54.023438 188.13086 C 53.767286 188.75832 53.773618 189.45291 53.828125 190.46484 C 53.854534 190.95516 53.755014 191.29493 53.5625 191.83398 C 53.369986 192.37304 53.087679 193.09564 52.777344 194.28516 L 52.783203 194.26172 C 52.783203 194.26172 52.337313 195.42327 51.925781 196.76172 C 51.720015 197.43094 51.523681 198.14373 51.394531 198.78516 C 51.265382 199.42659 51.196605 199.98775 51.279297 200.40039 C 51.353338 200.76985 51.27807 200.94301 51.148438 201.05859 C 51.018805 201.17418 50.785715 201.2353 50.515625 201.23828 C 50.245535 201.24127 49.946619 201.1882 49.712891 201.11914 C 49.596026 201.08461 49.496647 201.0477 49.425781 201.01367 C 49.354915 200.97964 49.312325 200.93024 49.337891 200.9668 C 49.221202 200.79992 49.206503 200.60285 49.228516 200.43164 C 49.250528 200.26043 49.321226 200.10055 49.308594 200.12695 C 49.746176 199.22016 49.683018 200.90832 50.958984 195.86133 L 50.958984 195.85742 C 51.481301 193.91588 51.289062 192.40234 51.289062 192.40234 A 0.20252025 0.20252025 0 0 0 50.908203 192.33594 C 50.626815 192.88374 50.450714 193.34563 49.820312 193.85547 L 50.074219 194.16992 C 50.510259 193.81727 50.62692 193.48099 50.820312 193.13867 C 50.85122 193.57594 50.967493 194.27486 50.568359 195.75586 A 0.20252025 0.20252025 0 0 0 50.566406 195.75781 C 49.292731 200.79712 49.454226 198.89251 48.943359 199.95117 A 0.20252025 0.20252025 0 0 0 48.943359 199.95312 C 48.917907 200.00633 48.858028 200.14633 48.828125 200.37891 C 48.798222 200.61149 48.812644 200.9229 49.005859 201.19922 C 49.077695 201.30194 49.152606 201.33019 49.25 201.37695 C 49.347394 201.42372 49.465693 201.46825 49.599609 201.50781 C 49.867442 201.58695 50.1948 201.64812 50.519531 201.64453 C 50.844263 201.64094 51.175278 201.57577 51.417969 201.35938 C 51.660659 201.14298 51.767675 200.77886 51.675781 200.32031 C 51.617605 200.03001 51.666166 199.48531 51.791016 198.86523 C 51.915866 198.24516 52.109165 197.54217 52.3125 196.88086 C 52.719169 195.55823 53.162109 194.4082 53.162109 194.4082 A 0.20252025 0.20252025 0 0 0 53.167969 194.38672 C 53.473241 193.21661 53.747081 192.5203 53.943359 191.9707 C 54.139638 191.42111 54.262448 191.00083 54.232422 190.44336 C 54.178411 189.44064 54.183469 188.80978 54.398438 188.2832 C 54.590431 187.8129 55.062624 187.36496 55.767578 186.8125 C 55.841469 186.95492 55.903416 187.08661 56.091797 187.39648 C 56.360318 187.83824 56.684919 188.32911 57.041016 188.57227 C 57.33313 188.77174 57.429617 189.05057 57.417969 189.41992 C 57.40632 189.78927 57.265192 190.23115 57.068359 190.64844 C 56.871527 191.06573 56.620714 191.46078 56.408203 191.74609 C 56.301948 191.88875 56.203519 192.00461 56.130859 192.08008 C 56.09453 192.11781 56.064058 192.14488 56.046875 192.1582 C 56.029692 192.17153 56.009446 192.15744 56.089844 192.15234 C 55.209244 192.20809 54.731124 192.94562 54.753906 193.60156 C 54.765297 193.92953 54.901189 194.25428 55.179688 194.45117 C 55.458186 194.64806 55.858535 194.69724 56.333984 194.54883 C 57.242879 194.26509 57.55622 193.79479 57.765625 193.28906 C 57.97503 192.78334 58.120704 192.24545 58.830078 191.58203 C 59.099695 191.3299 59.28104 190.86515 59.458984 190.36523 C 59.636929 189.86532 59.782201 189.34294 59.861328 189.03906 A 0.20252025 0.20252025 0 0 0 59.839844 188.88281 C 59.839844 188.88281 59.498333 188.31668 59.384766 187.47852 C 59.271198 186.64035 59.381443 185.55426 60.316406 184.48242 C 60.894862 183.81928 61.080809 183.02988 61.15625 182.45703 C 61.177882 182.29278 61.181661 182.20441 61.191406 182.08398 L 64.353516 186.02734 C 65.40709 187.34135 66.31214 188.16145 67.070312 188.57617 C 67.449399 188.78353 67.795041 188.89113 68.109375 188.89258 C 68.423709 188.89402 68.707173 188.77975 68.914062 188.57031 C 69.327841 188.15144 69.453987 187.42224 69.363281 186.48047 C 69.272575 185.53869 68.951512 184.36947 68.376953 183.04688 C 67.839075 181.80874 67.281193 181.00136 66.503906 180.22266 C 65.72662 179.44395 64.736146 178.69214 63.306641 177.52734 C 61.725314 176.23886 60.179008 175.80907 59.027344 175.70117 z "
       id="path973" />
    <path
       style="color:#000000;font-style:normal;font-variant:normal;font-weight:normal;font-stretch:normal;font-size:medium;line-height:normal;font-family:sans-serif;font-variant-ligatures:normal;font-variant-position:normal;font-variant-caps:normal;font-variant-numeric:normal;font-variant-alternates:normal;font-variant-east-asian:normal;font-feature-settings:normal;font-variation-settings:normal;text-indent:0;text-align:start;text-decoration:none;text-decoration-line:none;text-decoration-style:solid;text-decoration-color:#000000;letter-spacing:normal;word-spacing:normal;text-transform:none;writing-mode:lr-tb;direction:ltr;text-orientation:mixed;dominant-baseline:auto;baseline-shift:baseline;text-anchor:start;white-space:normal;shape-padding:0;shape-margin:0;inline-size:0;clip-rule:nonzero;display:inline;overflow:visible;visibility:visible;isolation:auto;mix-blend-mode:normal;color-interpolation:sRGB;color-interpolation-filters:linearRGB;solid-color:#000000;solid-opacity:1;vector-effect:none;fill:#3363b8;fill-opacity:1;fill-rule:nonzero;stroke:#fffeff;stroke-width:0.40499998;stroke-linecap:butt;stroke-linejoin:round;stroke-miterlimit:4;stroke-dasharray:none;stroke-dashoffset:0;stroke-opacity:1;paint-order:markers stroke fill;color-rendering:auto;image-rendering:auto;shape-rendering:auto;text-rendering:auto;enable-background:accumulate;stop-color:#000000;stop-opacity:1;opacity:1"
       d="M 49.572266 188.375 C 49.325942 188.36264 49.113153 188.49658 48.845703 188.68555 C 48.32076 189.05644 47.622621 189.72634 46.841797 190.48633 C 46.832993 190.49075 46.646449 190.58812 46.167969 190.62109 C 45.678552 190.65482 44.919491 190.60963 43.869141 190.27344 C 43.32426 190.09913 43.804508 189.95472 40.697266 189.29297 A 0.20252025 0.20252025 0 0 0 40.462891 189.55273 A 0.20252025 0.20252025 0 0 0 40.472656 189.57617 C 40.472656 189.57617 40.787957 190.25377 41.240234 191.07031 C 41.669557 191.84542 42.220304 192.7187 42.759766 193.30859 C 42.707868 193.38854 42.638975 193.46957 42.582031 193.69531 C 42.504044 194.00448 42.526543 194.44175 42.888672 194.78125 L 42.84375 194.72266 C 42.84375 194.72266 43.094119 195.24451 43.414062 195.80078 C 43.574034 196.07891 43.751908 196.36558 43.927734 196.60547 C 44.066863 196.79529 44.205731 196.92065 44.355469 197.0293 L 44.46875 199.49023 A 0.20252025 0.20252025 0 0 0 44.472656 199.52734 C 44.472656 199.52734 44.521886 199.73221 44.699219 199.91406 C 44.876552 200.09591 45.191897 200.26311 45.667969 200.25781 A 0.20252025 0.20252025 0 0 0 45.671875 200.25781 C 46.374612 200.2354 46.96875 199.65039 46.96875 199.65039 A 0.20252025 0.20252025 0 0 0 47.025391 199.55664 C 47.398085 198.28088 47.600156 197.60767 47.708984 197.25391 C 47.805142 196.94133 47.809711 196.93477 47.8125 196.92773 C 48.519787 196.54814 49.203851 196.10396 49.666016 195.61133 C 49.906629 195.35485 50.091982 195.08513 50.185547 194.79883 C 50.279112 194.51253 50.272913 194.20412 50.128906 193.92188 A 0.20252025 0.20252025 0 0 0 50.115234 193.89844 C 49.512138 193.02406 49.489682 192.66199 49.597656 192.04688 C 49.705631 191.43176 49.980094 190.57793 49.982422 188.94922 C 49.982626 188.80372 49.965791 188.6771 49.898438 188.56641 C 49.831084 188.45571 49.695428 188.38118 49.572266 188.375 z M 49.550781 188.78125 C 49.557608 188.7935 49.578267 188.84794 49.578125 188.94922 C 49.575861 190.53313 49.315982 191.31137 49.199219 191.97656 C 49.082455 192.64175 49.146169 193.20816 49.78125 194.12891 L 49.767578 194.10547 C 49.862575 194.29166 49.867805 194.46874 49.800781 194.67383 C 49.733757 194.87891 49.585195 195.10577 49.371094 195.33398 C 48.942891 195.79042 48.26098 196.2472 47.546875 196.62305 A 0.20252025 0.20252025 0 0 0 47.457031 196.7207 C 47.457031 196.7207 47.432103 196.77772 47.322266 197.13477 C 47.215952 197.48035 47.008733 198.1704 46.658203 199.36914 C 46.62127 199.40011 46.107527 199.83787 45.660156 199.85352 C 45.27786 199.85714 45.094648 199.73793 44.990234 199.63086 C 44.889488 199.52755 44.872449 199.44957 44.871094 199.44336 L 44.757812 196.94922 A 0.20252025 0.20252025 0 0 0 44.644531 196.77539 C 44.583745 196.74608 44.415075 196.58513 44.253906 196.36523 C 44.092738 196.14534 43.921138 195.86804 43.765625 195.59766 C 43.4546 195.0569 43.208984 194.54688 43.208984 194.54688 A 0.20252025 0.20252025 0 0 0 43.164062 194.48633 C 42.914342 194.25221 42.918754 194.01635 42.974609 193.79492 C 43.030464 193.5735 43.150391 193.40625 43.150391 193.40625 A 0.20252025 0.20252025 0 0 0 43.132812 193.14648 C 42.624382 192.62189 42.040861 191.67869 41.595703 190.875 C 41.278168 190.30172 41.171683 190.06746 41.054688 189.82617 C 42.895712 190.26774 43.178918 190.47676 43.746094 190.6582 C 44.840151 191.00839 45.651772 191.06285 46.195312 191.02539 C 46.738853 190.98793 47.035156 190.84961 47.035156 190.84961 A 0.20252025 0.20252025 0 0 0 47.087891 190.8125 C 47.885524 190.03579 48.596519 189.35728 49.080078 189.01562 C 49.321056 188.84537 49.5143 188.77993 49.550781 188.78125 z "
       id="path993" />
    <path
       id="path2837"
       d="m 65.486833,187.03349 c 0.467525,-1.26592 1.677906,-1.80741 3.407059,-1.91986 0.147214,0.74578 0.36611,1.51391 0.270404,2.19026 -0.108705,1.33842 -0.774206,1.51024 -1.635931,1.2709 -1.084504,-0.52611 -1.585149,-1.08499 -2.041532,-1.5413 z"
       style="fill:#3363b8;fill-opacity:1;stroke:#3363b8;stroke-width:0.405;stroke-linecap:butt;stroke-linejoin:round;stroke-miterlimit:4;stroke-dasharray:none;stroke-opacity:1;paint-order:markers fill stroke" />
    <g
       id="text83799"
       style="font-style:normal;font-weight:normal;font-size:10.58333302px;line-height:1.25;font-family:sans-serif;letter-spacing:0px;word-spacing:0px;fill:#000000;fill-opacity:1;stroke:#ffffff;stroke-width:0.26499999;stroke-opacity:1;stroke-miterlimit:4;stroke-dasharray:none;paint-order:markers stroke fill"
       aria-label="LF OS">
      <path
         id="path83811"
         style="font-style:italic;font-variant:normal;font-weight:bold;font-stretch:normal;font-size:7.76111px;font-family:'TeX Gyre Schola';-inkscape-font-specification:'TeX Gyre Schola Bold Italic';fill:#3363b8;fill-opacity:1;stroke:#ffffff;stroke-width:1.75748031;stroke-miterlimit:4;stroke-dasharray:none;stroke-opacity:1;paint-order:markers stroke fill"
         d="M 71.533203 79.697266 L 71.298828 81.28125 L 71.857422 81.28125 C 73.764092 81.28125 74.173828 81.426911 74.173828 82.072266 C 74.173828 82.336455 74.056984 82.893251 73.792969 83.919922 L 70.199219 97.279297 C 68.376426 98.987655 65.280484 99.328125 63.095703 99.328125 L 62.041016 99.328125 C 60.867684 99.328125 60.486328 99.152951 60.486328 98.566406 C 60.456848 98.302217 60.603136 97.716086 60.896484 96.689453 L 64.298828 83.957031 C 64.826828 81.962385 64.827797 81.963187 65.091797 81.728516 C 65.385126 81.435224 66.088315 81.318359 67.320312 81.318359 L 67.849609 81.318359 L 68.083984 79.734375 L 56.878906 79.734375 L 56.642578 81.318359 L 57.201172 81.318359 C 59.107838 81.318359 59.517578 81.464021 59.517578 82.109375 C 59.517578 82.373564 59.4007 82.93036 59.136719 83.957031 L 55.705078 96.689453 C 55.177078 98.684099 55.176073 98.683298 54.941406 98.917969 C 54.618748 99.21126 54.384341 99.328125 53.152344 99.328125 L 52.566406 99.328125 L 52.361328 100.91211 L 71.222656 100.91211 L 71.232422 100.875 L 78.017578 100.875 L 78.251953 99.291016 L 77.458984 99.291016 C 75.552315 99.291016 75.142578 99.143401 75.142578 98.498047 C 75.142578 98.233858 75.259386 97.706391 75.552734 96.650391 L 77.136719 90.697266 L 78.076172 90.697266 C 79.630839 90.697266 80.539062 91.634357 80.539062 93.541016 C 80.539062 94.069016 80.509781 94.479382 80.392578 95.330078 L 81.947266 95.566406 L 84.587891 85.738281 L 83.033203 85.533203 C 82.035869 88.143874 81.009033 89.113281 78.457031 89.113281 L 77.546875 89.113281 L 79.277344 82.689453 C 79.570673 81.545428 79.924288 81.28125 81.126953 81.28125 L 82.181641 81.28125 C 85.67231 81.28125 86.75774 82.629445 86.816406 86.882812 L 88.341797 86.882812 L 89.515625 79.697266 L 71.533203 79.697266 z "
         transform="matrix(0.26458332,0,0,0.26458332,38.452843,173.67052)" />
      <path
         id="path83815"
         style="font-style:italic;font-variant:normal;font-weight:bold;font-stretch:normal;font-size:7.76111126px;font-family:'TeX Gyre Schola';-inkscape-font-specification:'TeX Gyre Schola Bold Italic';fill:#3363b8;fill-opacity:1;stroke-width:0.46499998;stroke:#ffffff;stroke-opacity:1;stroke-miterlimit:4;stroke-dasharray:none;paint-order:markers stroke fill"
         d="m 69.836097,196.94767 c 0,-1.28835 -1.039989,-2.29729 -2.382661,-2.29729 -1.862667,0 -3.523545,1.56774 -3.523545,3.50026 0,1.41252 0.939095,2.33609 2.374901,2.33609 1.916994,0 3.531305,-1.61431 3.531305,-3.53906 z m -2.048933,1.90147 c -0.434622,0.82268 -0.923572,1.21849 -1.482372,1.21849 -0.605367,0 -0.985662,-0.4579 -0.985662,-1.19521 0,-0.72954 0.2794,-1.82386 0.659695,-2.59997 0.403578,-0.81492 0.869244,-1.20297 1.451328,-1.20297 0.613127,0 0.9779,0.48119 0.9779,1.26506 0,0.81491 -0.240595,1.78505 -0.620889,2.5146 z" />
      <path
         id="path83817"
         style="font-style:italic;font-variant:normal;font-weight:bold;font-stretch:normal;font-size:7.76111126px;font-family:'TeX Gyre Schola';-inkscape-font-specification:'TeX Gyre Schola Bold Italic';fill:#3363b8;fill-opacity:1;stroke-width:0.46499998;stroke:#ffffff;stroke-opacity:1;stroke-miterlimit:4;stroke-dasharray:none;paint-order:markers stroke fill"
         d="m 74.872937,198.63183 c 0,-1.05551 -0.613127,-1.38924 -2.041172,-1.86267 -0.729544,-0.24059 -0.869244,-0.48895 -0.869244,-0.86148 0,-0.50448 0.442383,-0.8382 1.109839,-0.8382 0.869244,0 1.435805,0.57432 1.474611,1.72296 l 0.403577,0.0699 0.341489,-2.04117 h -0.34925 l -0.411339,0.4191 c -0.473427,-0.41134 -0.939094,-0.58984 -1.552222,-0.58984 -1.179689,0 -2.064455,0.80715 -2.064455,1.87819 0,0.4191 0.147461,0.78387 0.434622,1.05551 0.240594,0.23283 0.473428,0.35701 1.125361,0.57432 1.04775,0.35701 1.32715,0.58208 1.32715,1.03223 0,0.51999 -0.48895,0.877 -1.218495,0.877 -1.008944,0 -1.660877,-0.67521 -1.668638,-1.59879 l 0.0078,-0.23283 -0.403578,-0.0621 -0.388056,2.1964 h 0.341489 l 0.450145,-0.50448 c 0.512233,0.44239 0.985661,0.62089 1.684161,0.62089 1.342672,0 2.266244,-0.76059 2.266244,-1.8549 z" />
    </g>
  </g>
</svg>
