<?xml version="1.0" encoding="UTF-8" standalone="no"?>
<svg
   xmlns:osb="http://www.openswatchbook.org/uri/2009/osb"
   xmlns:dc="http://purl.org/dc/elements/1.1/"
   xmlns:cc="http://creativecommons.org/ns#"
   xmlns:rdf="http://www.w3.org/1999/02/22-rdf-syntax-ns#"
   xmlns:svg="http://www.w3.org/2000/svg"
   xmlns="http://www.w3.org/2000/svg"
   xmlns:xlink="http://www.w3.org/1999/xlink"
   xmlns:sodipodi="http://sodipodi.sourceforge.net/DTD/sodipodi-0.dtd"
   xmlns:inkscape="http://www.inkscape.org/namespaces/inkscape"
   width="38.839195mm"
   height="29.973843mm"
   viewBox="0 0 38.839192 29.973842"
   version="1.1"
   id="svg8"
   sodipodi:docname="LF OS.svg"
   inkscape:version="1.0.1 (3bc2e813f5, 2020-09-07)">
  <sodipodi:namedview
     pagecolor="#000000"
     bordercolor="#666666"
     borderopacity="1"
     objecttolerance="10"
     gridtolerance="10"
     guidetolerance="10"
     inkscape:pageopacity="0"
     inkscape:pageshadow="2"
     inkscape:window-width="1916"
     inkscape:window-height="1041"
     id="namedview945"
     showgrid="false"
     inkscape:zoom="5.1431865"
     inkscape:cx="71.446847"
     inkscape:cy="75.595886"
     inkscape:window-x="1920"
     inkscape:window-y="18"
     inkscape:window-maximized="1"
     inkscape:current-layer="layer1"
     inkscape:pagecheckerboard="true" />
  <defs
     id="defs2">
    <linearGradient
       id="linearGradient965">
      <stop
         id="stop963"
         offset="0"
         style="stop-color:#000000;stop-opacity:1;" />
    </linearGradient>
    <linearGradient
       id="linearGradient2867">
      <stop
         id="stop2863"
         offset="0"
         style="stop-color:#fffcf5;stop-opacity:1;" />
      <stop
         id="stop2865"
         offset="1"
         style="stop-color:#fffcf5;stop-opacity:0;" />
    </linearGradient>
    <linearGradient
       osb:paint="gradient"
       id="linearGradient2845">
      <stop
         id="stop2841"
         offset="0"
         style="stop-color:#000000;stop-opacity:0.05439331" />
      <stop
         id="stop2843"
         offset="1"
         style="stop-color:#090600;stop-opacity:0.68619245" />
    </linearGradient>
    <linearGradient
       gradientUnits="userSpaceOnUse"
       y2="143.54166"
       x2="202.06606"
       y1="143.54166"
       x1="33.791069"
       id="linearGradient2869"
       xlink:href="#linearGradient2867" />
  </defs>
  <metadata
     id="metadata5">
    <rdf:RDF>
      <cc:Work
         rdf:about="">
        <dc:format>image/svg+xml</dc:format>
        <dc:type
           rdf:resource="http://purl.org/dc/dcmitype/StillImage" />
        <dc:title></dc:title>
      </cc:Work>
    </rdf:RDF>
  </metadata>
  <g
     transform="translate(-38.452843,-173.67052)"
     style="display:none"
     id="layer2">
    <image
       xlink:href="resources/photos/fox-climbing-down.jpg"
       width="168.27499"
       height="238.125"
       preserveAspectRatio="none"
       style="fill:url(#linearGradient2869);fill-opacity:1;image-rendering:optimizeSpeed"
       id="image72"
       x="33.791069"
       y="24.479164" />
  </g>
  <g
     transform="translate(-38.452843,-173.67052)"
     style="display:inline"
     id="layer1">
    <path
       id="path945"
       style="display:inline;fill:#3363b8;fill-opacity:1;stroke:#ffffff;stroke-width:2;stroke-linecap:butt;stroke-linejoin:round;stroke-miterlimit:4;stroke-dasharray:none;stroke-opacity:1;paint-order:stroke fill markers"
       d="M 74.814453 7.5644531 C 72.190187 7.6179199 70.597491 8.0693148 70.580078 8.0742188 C 70.531612 8.0850014 28.31143 17.50012 20.074219 62.595703 C 18.643003 61.993667 19.294967 61.347672 8.4824219 59.044922 A 0.7654309 0.7654309 0 0 0 7.5976562 60.027344 A 0.7654309 0.7654309 0 0 0 7.6347656 60.115234 C 7.6347656 60.115234 8.8257634 62.677536 10.535156 65.763672 C 12.157794 68.693222 14.238432 71.993151 16.277344 74.222656 C 16.081194 74.524829 15.82069 74.830403 15.605469 75.683594 C 15.321212 76.810496 15.403852 78.384693 16.636719 79.646484 C 16.694989 79.76752 17.581642 81.607812 18.751953 83.642578 C 19.356572 84.693778 20.02882 85.776923 20.693359 86.683594 C 21.219201 87.401024 21.742655 87.874511 22.308594 88.285156 L 22.736328 97.585938 A 0.7654309 0.7654309 0 0 0 22.751953 97.726562 C 22.751953 97.726562 22.937187 98.500193 23.607422 99.1875 C 24.277657 99.874807 25.470204 100.50831 27.269531 100.48828 A 0.7654309 0.7654309 0 0 0 27.285156 100.48828 C 29.94117 100.40358 32.185547 98.191406 32.185547 98.191406 A 0.7654309 0.7654309 0 0 0 32.400391 97.837891 C 33.808998 93.01612 34.573057 90.471811 34.984375 89.134766 C 35.347807 87.953361 35.364459 87.926999 35.375 87.900391 C 38.048211 86.46572 40.634094 84.78769 42.380859 82.925781 C 43.290263 81.956408 43.990118 80.937548 44.34375 79.855469 C 44.417043 79.631199 44.471917 79.403469 44.509766 79.173828 C 44.567925 79.202653 44.627192 79.234123 44.689453 79.275391 C 44.407217 82.241829 44.64151 85.242173 43.71875 88.166016 C 43.036383 88.666954 42.360448 89.350803 42.369141 89.666016 C 42.289425 92.540574 42.476914 93.607311 42.833984 94.09375 C 41.139001 99.194226 41.029262 96.466667 39.648438 99.328125 A 0.7654309 0.7654309 0 0 0 39.648438 99.335938 C 39.552241 99.537044 39.32591 100.06627 39.212891 100.94531 C 39.099871 101.82436 39.154504 103.00056 39.884766 104.04492 C 40.156272 104.43315 40.44049 104.54007 40.808594 104.7168 C 41.176697 104.89357 41.622767 105.06142 42.128906 105.21094 C 43.141189 105.51005 44.378139 105.74208 45.605469 105.72852 C 46.832802 105.71495 48.084696 105.46824 49.001953 104.65039 C 49.919207 103.8325 50.323878 102.45576 49.976562 100.72266 C 49.756687 99.625451 49.940235 97.568219 50.412109 95.224609 C 50.883983 92.881038 51.614304 90.224049 52.382812 87.724609 C 53.919829 82.725693 55.59375 78.378906 55.59375 78.378906 A 0.7654309 0.7654309 0 0 0 55.617188 78.296875 C 56.770969 73.874412 57.805037 71.243244 58.546875 69.166016 C 59.10871 67.592851 59.510062 66.29967 59.623047 64.849609 C 59.725238 64.798874 59.834017 64.743758 59.964844 64.669922 C 60.253751 64.506835 60.619003 64.283396 61.019531 64.035156 C 61.820595 63.53864 62.753403 62.934662 63.425781 62.455078 C 64.165439 61.927569 65.325176 60.984876 66.083984 60.300781 C 66.812409 59.643521 68.150872 58.440647 69.058594 57.621094 L 70.380859 56.421875 C 71.380161 57.168368 71.721871 58.187732 71.679688 59.525391 C 71.63566 60.921359 71.101358 62.59081 70.357422 64.167969 C 69.61349 65.745128 68.666472 67.238069 67.863281 68.316406 C 67.461688 68.855594 67.089074 69.294837 66.814453 69.580078 C 66.678899 69.72086 66.567329 69.820085 66.501953 69.871094 C 63.276677 70.160134 61.524671 72.891284 61.609375 75.330078 C 61.652428 76.56965 62.166155 77.796864 63.21875 78.541016 C 64.271341 79.285167 65.785059 79.471076 67.582031 78.910156 C 71.017225 77.837753 72.202689 76.059856 72.994141 74.148438 C 73.785593 72.237055 74.334526 70.20468 77.015625 67.697266 C 78.03465 66.744333 78.720034 64.987118 79.392578 63.097656 C 80.065126 61.208233 80.615002 59.234458 80.914062 58.085938 A 0.7654309 0.7654309 0 0 0 80.832031 57.496094 C 80.832031 57.496094 79.542511 55.355349 79.113281 52.1875 C 78.684048 49.019613 79.101047 44.91433 82.634766 40.863281 C 84.821056 38.356925 85.523462 35.374087 85.808594 33.208984 C 85.890352 32.588197 85.904575 32.253997 85.941406 31.798828 L 97.892578 46.703125 C 101.87459 51.669462 105.29462 54.768492 108.16016 56.335938 C 109.59293 57.119658 110.89986 57.52577 112.08789 57.53125 C 113.27592 57.536693 114.34696 57.106037 115.12891 56.314453 C 116.6928 54.731322 117.169 51.975461 116.82617 48.416016 C 116.48335 44.856532 115.27117 40.436266 113.09961 35.4375 C 111.06668 30.757916 108.95731 27.70679 106.01953 24.763672 C 103.08176 21.820516 99.338401 18.978566 93.935547 14.576172 C 87.958878 9.7063258 82.114465 8.0835923 77.761719 7.6757812 C 76.677973 7.5742444 75.689208 7.5466309 74.814453 7.5644531 z M 74.914062 9.0488281 C 79.006294 8.9568693 85.805806 9.9291601 92.96875 15.765625 C 98.389757 20.182759 102.11074 23.011838 104.93555 25.841797 C 107.76035 28.671756 109.72017 31.491888 111.69727 36.042969 C 112.83491 38.661758 113.68984 41.103265 114.29492 43.326172 C 108.55059 43.828074 104.40498 45.666476 102.51758 49.689453 C 101.42961 48.540895 100.28926 47.242462 99.087891 45.744141 L 86.251953 29.732422 C 86.153451 29.609587 86.057252 29.454795 85.734375 29.355469 C 85.572936 29.305806 85.337296 29.303166 85.150391 29.384766 C 84.963485 29.466366 84.844231 29.595724 84.775391 29.695312 C 84.500033 30.093713 84.556899 30.279605 84.523438 30.574219 C 84.456517 31.163447 84.420239 31.998855 84.287109 33.009766 C 84.020853 35.031511 83.377874 37.686411 81.482422 39.859375 C 77.646368 44.257007 77.119518 48.909013 77.591797 52.394531 C 78.031522 55.639861 79.210891 57.57609 79.386719 57.878906 C 79.088435 59.014201 78.577435 60.833925 77.953125 62.587891 C 77.305412 64.407582 76.443088 66.138466 75.96875 66.582031 C 73.054099 69.307864 72.316351 71.778803 71.576172 73.566406 C 70.835993 75.353972 70.249755 76.476179 67.132812 77.449219 C 65.647509 77.912853 64.704482 77.708652 64.105469 77.285156 C 63.506459 76.86166 63.168557 76.137829 63.138672 75.277344 C 63.078899 73.556411 64.23519 71.540922 66.763672 71.380859 C 67.184515 71.354214 67.277744 71.208317 67.435547 71.085938 C 67.593346 70.963556 67.751305 70.819725 67.921875 70.642578 C 68.263019 70.288247 68.656945 69.810992 69.087891 69.232422 C 69.949778 68.075282 70.940192 66.518115 71.738281 64.826172 C 72.536366 63.134191 73.152326 61.310748 73.207031 59.576172 C 73.261736 57.841633 72.672061 56.124345 71.111328 55.058594 C 70.26889 54.48335 68.94974 52.687511 67.972656 51.080078 C 66.995565 49.472834 66.291012 48.046875 66.291016 48.046875 A 0.7654309 0.7654309 0 0 0 65.146484 47.78125 C 61.731416 50.325137 59.817739 52.280841 58.849609 54.652344 C 57.881476 57.023846 57.905317 59.649992 58.111328 63.474609 C 58.211142 65.327787 57.835034 66.611083 57.107422 68.648438 C 56.37981 70.685828 55.313545 73.418241 54.140625 77.914062 L 54.162109 77.824219 C 54.162109 77.824219 52.477272 82.214729 50.921875 87.273438 C 50.144177 89.802771 49.402189 92.497573 48.914062 94.921875 C 48.425942 97.346177 48.165979 99.465808 48.478516 101.02539 C 48.758356 102.42177 48.47237 103.07683 47.982422 103.51367 C 47.49247 103.95055 46.61261 104.1821 45.591797 104.19336 C 44.570984 104.20466 43.441975 104.0032 42.558594 103.74219 C 42.116899 103.61168 41.740496 103.47237 41.472656 103.34375 C 41.27445 103.24857 41.133356 103.12274 41.113281 103.11914 C 40.702026 102.49879 40.645453 101.77539 40.726562 101.14453 C 40.809757 100.49744 41.07704 99.892408 41.029297 99.992188 C 42.68315 96.56495 42.445029 102.94633 47.267578 83.871094 L 47.267578 83.855469 C 49.24169 76.517364 48.515625 70.796875 48.515625 70.796875 A 0.7654309 0.7654309 0 0 0 47.076172 70.546875 C 46.116982 72.414205 45.468908 74.018259 43.605469 75.728516 C 41.811266 72.945234 41.746881 71.59608 42.123047 69.453125 C 42.531141 67.128262 43.567373 63.901848 43.576172 57.746094 C 43.576943 57.196172 43.514328 56.717184 43.259766 56.298828 C 43.005199 55.880434 42.490885 55.599529 42.025391 55.576172 C 41.094402 55.529457 40.290132 56.035783 39.279297 56.75 C 37.29526 58.151789 34.658177 60.684237 31.707031 63.556641 C 31.673756 63.573346 30.968585 63.939842 29.160156 64.064453 C 27.483764 64.179988 24.960195 64.041394 21.548828 63.070312 C 29.545374 18.644734 70.925781 9.5566406 70.925781 9.5566406 A 0.7654309 0.7654309 0 0 0 70.978516 9.5429688 C 70.978516 9.5429688 72.458725 9.1040034 74.914062 9.0488281 z M 65.330078 49.802734 C 65.48019 50.064315 65.63895 50.342693 65.832031 50.681641 C 66.947653 52.639738 68.210204 54.535787 69.074219 55.472656 L 69.109375 55.509766 L 68.033203 56.484375 C 67.125655 57.303777 65.786788 58.507031 65.058594 59.164062 C 64.360817 59.793127 63.191106 60.74535 62.541016 61.208984 C 61.916434 61.654477 60.991843 62.254741 60.214844 62.736328 C 60.043113 62.84276 59.924533 62.909997 59.771484 63.001953 C 59.756423 62.439597 59.741171 61.761115 59.742188 60.964844 L 59.742188 58.078125 L 61.09375 57.148438 C 62.584078 56.124715 63.694917 55.225158 64.4375 54.394531 C 65.180086 53.563904 65.653758 52.726796 65.427734 51.826172 C 65.345356 51.496786 65.227 51.353803 65.080078 51.138672 C 64.933157 50.923541 64.754152 50.705996 64.5625 50.498047 C 64.543882 50.477826 64.537499 50.465193 64.519531 50.445312 C 64.689085 50.310537 64.861809 50.164451 65.050781 50.017578 C 65.154941 49.936621 65.232256 49.877834 65.330078 49.802734 z M 63.345703 51.419922 C 63.381062 51.459208 63.404003 51.490644 63.441406 51.53125 C 63.576558 51.677896 63.717348 51.856013 63.818359 52.003906 C 63.883154 52.098774 63.924823 52.198985 63.941406 52.230469 C 63.950646 52.344602 63.860222 52.7346 63.292969 53.369141 C 62.69233 54.040989 61.66393 54.902076 60.230469 55.886719 L 59.982422 56.056641 C 60.064307 55.772649 60.158448 55.495836 60.267578 55.228516 C 60.779341 53.974917 61.843352 52.757669 63.345703 51.419922 z M 41.945312 57.111328 C 41.971115 57.157627 42.049365 57.363303 42.048828 57.746094 C 42.040271 63.732526 41.058494 66.673396 40.617188 69.1875 C 40.179084 71.683322 40.417782 73.814552 42.769531 77.25 C 43.120927 77.947997 43.142067 78.613415 42.890625 79.382812 C 42.637306 80.157918 42.074826 81.014427 41.265625 81.876953 C 39.64722 83.602081 37.070073 85.329464 34.371094 86.75 A 0.7654309 0.7654309 0 0 0 34.03125 87.119141 C 34.03125 87.119141 33.936616 87.334113 33.521484 88.683594 C 33.119668 89.989723 32.336557 92.598235 31.011719 97.128906 C 30.872129 97.245958 28.931085 98.899835 27.240234 98.958984 C 25.795336 98.972666 25.10362 98.52186 24.708984 98.117188 C 24.328212 97.726724 24.262934 97.431674 24.257812 97.408203 L 23.830078 87.982422 A 0.7654309 0.7654309 0 0 0 23.402344 87.326172 C 23.172601 87.215394 22.534924 86.606509 21.925781 85.775391 C 21.316642 84.94431 20.667844 83.896909 20.080078 82.875 C 18.904551 80.831183 17.976562 78.902344 17.976562 78.902344 A 0.7654309 0.7654309 0 0 0 17.806641 78.673828 C 16.862817 77.788965 16.878738 76.897448 17.089844 76.060547 C 17.300949 75.223684 17.753906 74.591797 17.753906 74.591797 A 0.7654309 0.7654309 0 0 0 17.6875 73.609375 C 15.765875 71.626673 13.561393 68.062959 11.878906 65.025391 C 10.678774 62.858663 10.27617 61.972509 9.8339844 61.060547 C 16.792186 62.729473 17.862202 63.519321 20.005859 64.205078 C 24.140878 65.528631 27.209347 65.735331 29.263672 65.59375 C 31.318 65.452169 32.4375 64.929688 32.4375 64.929688 A 0.7654309 0.7654309 0 0 0 32.636719 64.789062 C 35.651395 61.853468 38.338391 59.28936 40.166016 57.998047 C 41.076799 57.354582 41.807434 57.106339 41.945312 57.111328 z "
       transform="matrix(0.26458332,0,0,0.26458332,38.452843,173.67052)" />
    <g
       id="text83799"
       style="font-style:normal;font-weight:normal;font-size:10.58333302px;line-height:1.25;font-family:sans-serif;letter-spacing:0px;word-spacing:0px;fill:#000000;fill-opacity:1;stroke:#ffffff;stroke-width:0.52916664;stroke-opacity:1;stroke-miterlimit:4;stroke-dasharray:none;paint-order:markers stroke fill"
       aria-label="LF OS">
      <path
         id="path83811"
         style="font-style:italic;font-variant:normal;font-weight:bold;font-stretch:normal;font-size:7.76111px;font-family:'TeX Gyre Schola';-inkscape-font-specification:'TeX Gyre Schola Bold Italic';fill:#3363b8;fill-opacity:1;stroke:#ffffff;stroke-width:2;stroke-miterlimit:4;stroke-dasharray:none;stroke-opacity:1;paint-order:markers stroke fill"
         d="M 71.533203 79.697266 L 71.298828 81.28125 L 71.857422 81.28125 C 73.764092 81.28125 74.173828 81.426911 74.173828 82.072266 C 74.173828 82.336455 74.056984 82.893251 73.792969 83.919922 L 70.199219 97.279297 C 68.376426 98.987655 65.280484 99.328125 63.095703 99.328125 L 62.041016 99.328125 C 60.867684 99.328125 60.486328 99.152951 60.486328 98.566406 C 60.456848 98.302217 60.603136 97.716086 60.896484 96.689453 L 64.298828 83.957031 C 64.826828 81.962385 64.827797 81.963187 65.091797 81.728516 C 65.385126 81.435224 66.088315 81.318359 67.320312 81.318359 L 67.849609 81.318359 L 68.083984 79.734375 L 56.878906 79.734375 L 56.642578 81.318359 L 57.201172 81.318359 C 59.107838 81.318359 59.517578 81.464021 59.517578 82.109375 C 59.517578 82.373564 59.4007 82.93036 59.136719 83.957031 L 55.705078 96.689453 C 55.177078 98.684099 55.176073 98.683298 54.941406 98.917969 C 54.618748 99.21126 54.384341 99.328125 53.152344 99.328125 L 52.566406 99.328125 L 52.361328 100.91211 L 71.222656 100.91211 L 71.232422 100.875 L 78.017578 100.875 L 78.251953 99.291016 L 77.458984 99.291016 C 75.552315 99.291016 75.142578 99.143401 75.142578 98.498047 C 75.142578 98.233858 75.259386 97.706391 75.552734 96.650391 L 77.136719 90.697266 L 78.076172 90.697266 C 79.630839 90.697266 80.539062 91.634357 80.539062 93.541016 C 80.539062 94.069016 80.509781 94.479382 80.392578 95.330078 L 81.947266 95.566406 L 84.587891 85.738281 L 83.033203 85.533203 C 82.035869 88.143874 81.009033 89.113281 78.457031 89.113281 L 77.546875 89.113281 L 79.277344 82.689453 C 79.570673 81.545428 79.924288 81.28125 81.126953 81.28125 L 82.181641 81.28125 C 85.67231 81.28125 86.75774 82.629445 86.816406 86.882812 L 88.341797 86.882812 L 89.515625 79.697266 L 71.533203 79.697266 z "
         transform="matrix(0.26458332,0,0,0.26458332,38.452843,173.67052)" />
      <path
         id="path83815"
         style="font-style:italic;font-variant:normal;font-weight:bold;font-stretch:normal;font-size:7.76111126px;font-family:'TeX Gyre Schola';-inkscape-font-specification:'TeX Gyre Schola Bold Italic';fill:#3363b8;fill-opacity:1;stroke-width:0.52916664;stroke:#ffffff;stroke-opacity:1;stroke-miterlimit:4;stroke-dasharray:none;paint-order:markers stroke fill"
         d="m 69.836097,196.94767 c 0,-1.28835 -1.039989,-2.29729 -2.382661,-2.29729 -1.862667,0 -3.523545,1.56774 -3.523545,3.50026 0,1.41252 0.939095,2.33609 2.374901,2.33609 1.916994,0 3.531305,-1.61431 3.531305,-3.53906 z m -2.048933,1.90147 c -0.434622,0.82268 -0.923572,1.21849 -1.482372,1.21849 -0.605367,0 -0.985662,-0.4579 -0.985662,-1.19521 0,-0.72954 0.2794,-1.82386 0.659695,-2.59997 0.403578,-0.81492 0.869244,-1.20297 1.451328,-1.20297 0.613127,0 0.9779,0.48119 0.9779,1.26506 0,0.81491 -0.240595,1.78505 -0.620889,2.5146 z" />
      <path
         id="path83817"
         style="font-style:italic;font-variant:normal;font-weight:bold;font-stretch:normal;font-size:7.76111126px;font-family:'TeX Gyre Schola';-inkscape-font-specification:'TeX Gyre Schola Bold Italic';fill:#3363b8;fill-opacity:1;stroke-width:0.52916664;stroke:#ffffff;stroke-opacity:1;stroke-miterlimit:4;stroke-dasharray:none;paint-order:markers stroke fill"
         d="m 74.872937,198.63183 c 0,-1.05551 -0.613127,-1.38924 -2.041172,-1.86267 -0.729544,-0.24059 -0.869244,-0.48895 -0.869244,-0.86148 0,-0.50448 0.442383,-0.8382 1.109839,-0.8382 0.869244,0 1.435805,0.57432 1.474611,1.72296 l 0.403577,0.0699 0.341489,-2.04117 h -0.34925 l -0.411339,0.4191 c -0.473427,-0.41134 -0.939094,-0.58984 -1.552222,-0.58984 -1.179689,0 -2.064455,0.80715 -2.064455,1.87819 0,0.4191 0.147461,0.78387 0.434622,1.05551 0.240594,0.23283 0.473428,0.35701 1.125361,0.57432 1.04775,0.35701 1.32715,0.58208 1.32715,1.03223 0,0.51999 -0.48895,0.877 -1.218495,0.877 -1.008944,0 -1.660877,-0.67521 -1.668638,-1.59879 l 0.0078,-0.23283 -0.403578,-0.0621 -0.388056,2.1964 h 0.341489 l 0.450145,-0.50448 c 0.512233,0.44239 0.985661,0.62089 1.684161,0.62089 1.342672,0 2.266244,-0.76059 2.266244,-1.8549 z" />
    </g>
  </g>
</svg>
